<svg xmlns="http://www.w3.org/2000/svg" viewBox="0 0 64 64">
  <rect width="64" height="64" rx="14" fill="#F8FAFC"/>
  <path d="M13 7h38l6 20c1.4 4.8-2.2 9.7-7.4 9.7-3.8 0-7-2.1-8.7-5.1-1.8 3-5.1 5.1-8.9 5.1s-7.1-2.1-8.9-5.1c-1.7 3-4.9 5.1-8.7 5.1-5.2 0-8.8-4.9-7.4-9.7L13 7Z" fill="#FFFFFF" stroke="#3B82F6" stroke-width="5" stroke-linejoin="round"/>
  <path d="M9.5 27h15.4c0 5-3.5 8.6-7.7 8.6s-7.7-3.6-7.7-8.6Zm14.8 0h15.4c0 5-3.5 8.6-7.7 8.6s-7.7-3.6-7.7-8.6Zm14.8 0h15.4c0 5-3.5 8.6-7.7 8.6s-7.7-3.6-7.7-8.6Z" fill="#22C55E"/>
  <path d="M13 34v20c0 2.2 1.8 4 4 4h30c2.2 0 4-1.8 4-4V34" fill="#FFFFFF" stroke="#3B82F6" stroke-width="5" stroke-linecap="round"/>
  <path d="M19 51h26" fill="none" stroke="#3B82F6" stroke-width="5" stroke-linecap="round"/>
  <path d="M22 51V45m8 6V39m8 12V43" fill="none" stroke="#3B82F6" stroke-width="5" stroke-linecap="round"/>
  <path d="M20 40l10-9 9 6 9-11" fill="none" stroke="#3B82F6" stroke-width="5" stroke-linecap="round" stroke-linejoin="round"/>
  <path d="M24 9v18M40 9v18" fill="none" stroke="#3B82F6" stroke-width="5" stroke-linecap="round"/>
</svg>
